<svg xmlns="http://www.w3.org/2000/svg" width="60.189" height="57.832" viewBox="0 0 60.189 57.832">
  <path id="marketing" d="M48.12,38.38a7.312,7.312,0,0,0-7.3-12.636l-4.083-7.071a4.708,4.708,0,0,0-8.238.15c-.571,1.079-1.108,2.2-1.676,3.387-2.316,4.837-4.94,10.319-10.614,13.595L8.925,40.015a10.888,10.888,0,0,0,9.546,19.514l5.1,8.828a5.7,5.7,0,0,0,9.871-5.7l-5.015-8.686c5.28-2.51,10.822-2.084,15.756-1.7,1.313.1,2.553.2,3.774.242A4.708,4.708,0,0,0,52.2,45.451L48.12,38.38ZM45.164,28.13a4.326,4.326,0,0,1,1.461,7.661L42.32,28.334a4.306,4.306,0,0,1,2.844-.2ZM14.382,57.35a7.912,7.912,0,0,1-3.967-14.755l6-3.465,7.915,13.693-6.008,3.469a7.857,7.857,0,0,1-3.941,1.058Zm16.743,8.86a2.714,2.714,0,0,1-4.977.657L21.1,58.127l4.71-2.719,5.046,8.739a2.7,2.7,0,0,1,.267,2.062ZM49.606,48.7a1.659,1.659,0,0,1-1.544.836c-1.161-.042-2.371-.136-3.653-.235-5.385-.416-11.439-.883-17.473,2.08L18.97,37.6c5.589-3.748,8.213-9.226,10.546-14.1.555-1.159,1.079-2.253,1.622-3.279a1.664,1.664,0,0,1,1.5-.919h.037a1.662,1.662,0,0,1,1.491.864l15.46,26.778a1.664,1.664,0,0,1-.016,1.756Zm-3.87-29.251,3.076-5.329a1.49,1.49,0,0,1,2.58,1.49l-3.076,5.329a1.49,1.49,0,0,1-2.58-1.49Zm13.831,5.621L54.11,28.219a1.49,1.49,0,1,1-1.49-2.58l5.458-3.151a1.49,1.49,0,0,1,1.49,2.58Zm4.106,10.719a1.49,1.49,0,0,1-1.49,1.49H56.03a1.49,1.49,0,1,1,0-2.979h6.153A1.49,1.49,0,0,1,63.673,35.786Z" transform="translate(-3.485 -13.373)" fill="#fff"/>
</svg>
