<svg xmlns="http://www.w3.org/2000/svg" width="57.832" height="57.832" viewBox="0 0 57.832 57.832">
  <path id="social-media-marketing" d="M19.223,48.5a.819.819,0,0,1,.819-.819H39.854a.819.819,0,1,1,0,1.639H20.042A.819.819,0,0,1,19.223,48.5Zm.819-5.256H34.515a.819.819,0,1,0,0-1.639H20.042a.819.819,0,1,0,0,1.639ZM53.585,55.21v9.724a1.9,1.9,0,0,1-1.9,1.9H38.625a1.9,1.9,0,0,1-1.9-1.9V59a29.963,29.963,0,0,1-6.779.762c-.966,0-1.936-.045-2.889-.134L16.937,66.684a.82.82,0,0,1-1.267-.857L17.7,57.074C12.239,54.394,9,50.089,9,45.458a11.622,11.622,0,0,1,4.279-8.682,22.643,22.643,0,0,1,10.54-5,.819.819,0,0,1,.333,1.6A21.309,21.309,0,0,0,14.372,38a10.036,10.036,0,0,0-3.733,7.46c0,4.14,3.122,8.032,8.35,10.411a.819.819,0,0,1,.459.931l-1.7,7.319,8.62-6.014a.821.821,0,0,1,.554-.143,29.392,29.392,0,0,0,3.025.156,28.207,28.207,0,0,0,6.779-.808v-2.1a1.9,1.9,0,0,1,1.9-1.9h6.442c2.7-2.234,4.191-5.014,4.191-7.853,0-3.034-1.681-5.976-4.734-8.282a.819.819,0,1,1,.988-1.308c3.472,2.624,5.385,6.03,5.385,9.59a11.359,11.359,0,0,1-3.422,7.853h4.212a1.9,1.9,0,0,1,1.9,1.9Zm-1.639,0a.263.263,0,0,0-.259-.259H38.625a.263.263,0,0,0-.259.259v9.724a.263.263,0,0,0,.259.259H51.686a.263.263,0,0,0,.259-.259Zm-3.632,4.862a.819.819,0,0,1-.41.71l-4.676,2.7A.819.819,0,0,1,42,62.771v-5.4a.819.819,0,0,1,1.229-.71l4.676,2.7A.819.819,0,0,1,48.313,60.071Zm-2.458,0-2.218-1.28v2.561ZM61.483,17.565a.815.815,0,0,0,.409-.11l3.165-1.827a.819.819,0,1,0-.819-1.419l-3.165,1.827a.82.82,0,0,0,.41,1.529Zm-5.275-3.7a.819.819,0,0,0,1.119-.3l1.928-3.339a.819.819,0,0,0-1.419-.819l-1.928,3.339a.819.819,0,0,0,.3,1.119Zm5.129,8.884a.819.819,0,0,0,.819.819h3.855a.819.819,0,1,0,0-1.639H62.157A.819.819,0,0,0,61.338,22.752ZM26.619,31.745a6.242,6.242,0,0,1,2.923-3.819l4.286-2.475a.817.817,0,0,1,.853.021A34.677,34.677,0,0,0,44.55,14.623l-.075-.131a3.368,3.368,0,1,1,5.834-3.368l3.344,5.792a3.771,3.771,0,0,1,3.767,6.524l3.344,5.792a3.367,3.367,0,0,1-2.906,5.051,3.4,3.4,0,0,1-.882-.117A3.344,3.344,0,0,1,54.93,32.6l-.075-.131a34.568,34.568,0,0,0-14.2,3.065L46.573,43.5a1.9,1.9,0,0,1-.241,2.553l-1.3,1.181a1.914,1.914,0,0,1-1.284.5q-.091,0-.182-.009a1.886,1.886,0,0,1-1.328-.747l-6.19-8.283-.216.125a6.228,6.228,0,0,1-3.122.84,6.361,6.361,0,0,1-1.647-.218,6.265,6.265,0,0,1-4.441-7.692ZM45.257,44.477l-5.773-7.771-2.009,1.16,6.074,8.127a.239.239,0,0,0,.173.1.268.268,0,0,0,.207-.069l1.3-1.181A.266.266,0,0,0,45.257,44.477ZM54.474,18.34,56.6,22.018a2.131,2.131,0,0,0-2.123-3.678Zm-8.58-4.666L56.349,31.781a1.729,1.729,0,0,0,3-1.729L48.889,11.944a1.729,1.729,0,0,0-2.995,1.729ZM35.581,26.847l4.2,7.28A37.527,37.527,0,0,1,53.9,30.821L45.5,16.273a37.526,37.526,0,0,1-9.922,10.574ZM28.66,35.7a4.665,4.665,0,0,0,6.35,1.7l3.577-2.065L33.938,27.28l-3.577,2.065a4.664,4.664,0,0,0-1.7,6.35ZM13.5,18.473a4.977,4.977,0,1,1,4.977,4.977A4.983,4.983,0,0,1,13.5,18.473Zm1.639,0a3.339,3.339,0,1,0,3.339-3.339A3.342,3.342,0,0,0,15.135,18.473ZM9,19.339V17.608a1.389,1.389,0,0,1,1.388-1.388,1.1,1.1,0,0,0,.775-1.871,1.388,1.388,0,0,1,0-1.963l1.224-1.224a1.389,1.389,0,0,1,1.963,0,1.1,1.1,0,0,0,1.871-.775A1.389,1.389,0,0,1,17.608,9h1.731a1.389,1.389,0,0,1,1.388,1.388,1.1,1.1,0,0,0,1.871.775,1.389,1.389,0,0,1,1.963,0l1.224,1.224a1.388,1.388,0,0,1,0,1.963,1.1,1.1,0,0,0,.775,1.871,1.389,1.389,0,0,1,1.388,1.388v1.731a1.389,1.389,0,0,1-1.388,1.388,1.1,1.1,0,0,0-.775,1.871,1.389,1.389,0,0,1,0,1.963L24.56,25.784a1.388,1.388,0,0,1-1.963,0,1.1,1.1,0,0,0-1.871.775,1.389,1.389,0,0,1-1.388,1.388h-1.73a1.389,1.389,0,0,1-1.388-1.388,1.1,1.1,0,0,0-1.871-.775,1.388,1.388,0,0,1-1.963,0L11.163,24.56a1.388,1.388,0,0,1,0-1.963,1.1,1.1,0,0,0-.775-1.871A1.39,1.39,0,0,1,9,19.339Zm1.639-.24a2.737,2.737,0,0,1,1.852,4.473l.884.884a2.736,2.736,0,0,1,4.472,1.853H19.1a2.737,2.737,0,0,1,4.473-1.853l.884-.884A2.737,2.737,0,0,1,26.307,19.1v-1.25a2.737,2.737,0,0,1-1.852-4.473l-.884-.884A2.737,2.737,0,0,1,19.1,10.639h-1.25a2.737,2.737,0,0,1-4.472,1.852l-.884.884a2.738,2.738,0,0,1-1.852,4.473ZM66.767,40.886A17.747,17.747,0,0,1,60.6,51.57,6.352,6.352,0,0,1,56.815,53a4.985,4.985,0,0,1-2.519-.7L54,52.126a2.1,2.1,0,0,1-.768-2.868L54.41,47.22a2.1,2.1,0,0,1,2.868-.768l.69.4a.45.45,0,0,0,.576-.1,16.1,16.1,0,0,0,3.026-5.242.451.451,0,0,0-.206-.547l-.69-.4a2.1,2.1,0,0,1-.768-2.868l1.177-2.038a2.1,2.1,0,0,1,2.868-.768l.294.17C66.213,36.2,67.086,38.214,66.767,40.886Zm-3.342-4.4-.294-.17a.461.461,0,0,0-.629.168L61.325,38.52a.463.463,0,0,0,.169.629l.69.4a2.079,2.079,0,0,1,.938,2.493,17.74,17.74,0,0,1-3.346,5.8,2.079,2.079,0,0,1-2.628.434l-.69-.4a.461.461,0,0,0-.629.168l-1.177,2.038a.463.463,0,0,0,.169.629l.294.17c1.4.806,2.868.6,4.5-.619a16.144,16.144,0,0,0,5.523-9.565c.242-2.026-.319-3.4-1.715-4.209Z" transform="translate(-9 -9)" fill="#fff"/>
</svg>
