<svg xmlns="http://www.w3.org/2000/svg" width="49.027" height="57.832" viewBox="0 0 49.027 57.832">
  <path id="event" d="M111.619,51.786a.76.76,0,0,1-.638.7l-1.244.173-3.065.447c-.546.081-1.092.165-1.64.233-.827.1-2.139.355-2.881.4a2.008,2.008,0,0,1-1.41-.488l-5.7-3.545a1,1,0,0,0-1.51.86c.038,3.753,0,7.535.022,11.289,0,.262.005.526.009.788l-.786,2.3c-.273.84-.562,1.676-.842,2.513l-.051.311c0,1.414.057,2.785.073,4.191,0,.349-.011.7.009,1.049.034.585.1,1.159.077,1.769a.7.7,0,0,0,0,.089c.061.532,0,1.049.068,1.626.041.326.05,2.42.049,2.7,0,1.128.1,2.224.087,3.289a17.833,17.833,0,0,0,.041,1.816,12.112,12.112,0,0,1,.133,1.629c.014.6.1.568.117.985l-3.025-.018c-.506.005-1.059.043-1.565.027-.239-.007-.477.006-.716.014.052-.394.135-.321.22-.4,1.019-.917.908-.575.945-2.181l.075-2.06-.064-2.5-.06-1.487c0-.077-.017-.155-.019-.233l-.017-.876c-.026-.256,0-.273-.011-.437-.109-1.186-.066-2.522-.1-3.722l-.077-1.544c-.018-.061.039-.043,0-.241-.044-.244-.006-1.281-.129-1.824-.1-.443-.214-.969-.355-1.4-.051-.154-.215-.914-.3-.873-.034.027-.012.07-.06.092-.115-.043-.092-.077-.136-.008-.017-.057-.04-.174-.089-.211a.73.73,0,0,0-.191.346c-.022.21.033.532-.059.585-.108.063.047.373-.009.573-.088.315-.1,1.258-.148,1.316-.1.118-.037.19-.044.321l-.077,3.044c-.045,1.327-.17,2.8-.146,4.092,0,.216.043.471.028.7a5.438,5.438,0,0,1,.006.582v1.69c0,.155.019.311.022.467l.011,2.151c0,.085.015.169.009.253l.017,1.449.05.475c-.015.059-.184.193-.212.349a2.012,2.012,0,0,0-.279,1.5H83.949a32.749,32.749,0,0,0,.244-4.17c0-.512,0-1.025.032-1.521.011-.147.016-.3.016-.457-.009-2.513-.146-5.428-.3-7.942,0-.06-.008-.121-.008-.18,0-.8-.089-1.863-.127-2.7l-.252-4.929-.533-8.107a24.025,24.025,0,0,0,2.485.378,9.694,9.694,0,0,1,1.029.121,18.426,18.426,0,0,0,2.893.142.9.9,0,0,0,.653-1.142l-.761-2.951c-.011-.039-.022-.079-.03-.118-.089-.47-.321-1.275-.455-1.775-.044-.165-.077-.333-.119-.5L87.61,47a1.026,1.026,0,0,0-1-.745l-7.125.1a22.271,22.271,0,0,1,.994-3.1,4.575,4.575,0,0,1,.719-1.141,3.077,3.077,0,0,1,1.565-.729,15.8,15.8,0,0,1,2.773-.518,1.872,1.872,0,0,1,1.041.051,7.3,7.3,0,0,0,1.39.019l1.157.1c.229.033.454.087.681.131a9.415,9.415,0,0,1,4.421,1.977c.469.4,1.7,1.821,2.129,2.28l5,5.472a.9.9,0,0,0,.749.293c.612-.026,1.222-.06,1.836-.077,2.269-.061,4.576-.207,6.845-.274a.766.766,0,0,1,.813.7ZM81.825,86.945l1.63-.025a1.489,1.489,0,0,1-.115-.532,7.487,7.487,0,0,0-.21-1.268,11.38,11.38,0,0,1-.124-1.417c-.031-.809-.19-1.68-.24-2.57-.011-.206-.122-1.863-.176-2.108-.1-.447-.058-.872-.142-1.267a.366.366,0,0,1-.008-.071,12.012,12.012,0,0,0-.158-1.379c-.036-.272-.037-.547-.059-.82l-.159-1.823c-.112-1.172-.149-2.351-.235-3.526-.045-.61-.074-1.222-.1-1.834-.013-.311-.046-.623-.065-.935l-.484-7.958q-.061-.86-.124-1.725l-.274-4.568c-.649-.016-1.294.025-1.942.014-.432-.008-.865,0-1.3.006l-2.512.024L74.3,63.275l-.873,13.086a5.562,5.562,0,0,1-.113,1.189c-.056.183-.129,1.457-.154,1.779-.071.892-.168,2.219-.283,3.075-.067.5-.034,1.931-.136,2.123-.078.148-.205,2.187-.228,2.49.229-.013.46-.02.689-.034.711-.042,1.422-.01,2.133-.027.371-.008.74,0,1.11.01.188.006.377-.009.566-.009ZM72.905,56.1c.029,0,.056.007.086.009l0-.06.179-3.98a.846.846,0,0,1,.821-.821l3.291-.028,4.453-.028a.928.928,0,0,1,.927.862l.311,4.18c.033,0,.066-.006.1-.007a10.562,10.562,0,0,1,1.832-.174c.522.016,1.126-.09,1.75-.087l1.393-.043L87.6,54.449c-.253-.758-.434-1.538-.662-2.3-.118-.4-.223-.8-.322-1.2-.05-.2-.121-.406-.177-.61l-.571-2.053-1.78,0-1.173.022-3.375,0c-.292,0-.588.016-.878,0-.489-.034-.973.019-1.461.006-.579-.015-1.184.026-1.759.028l-1.929.006-7.078-.133c.558,2.114,1.138,4.224,1.672,6.344a2.5,2.5,0,0,1,.174.792l.13.6,1.583.087a12.422,12.422,0,0,1,1.445.007,2.986,2.986,0,0,0,.762.059A5.029,5.029,0,0,1,72.905,56.1Zm6.2-9.787.014.051h-.045A.275.275,0,0,1,79.11,46.311Zm34.378,5.213a2.647,2.647,0,0,0-2.876-2.5l-8.249.431L97.8,44.6l-1.71-1.829L95.4,42.1a5.533,5.533,0,0,0-.988-.764l-.891-.512A12.563,12.563,0,0,0,90.565,39.8a4.9,4.9,0,0,0,1.775-2.767l.118-.751a5.04,5.04,0,0,0-.206-1.814c-.047-.1.033-.079-.1-.34l-.277-.607a3.928,3.928,0,0,0-1.3-1.473,3.707,3.707,0,0,0-2.994-.49c.032.036.087.016.11.066-.069.125-.092.08-.019.135-.065.014-.205.028-.248.076a1.024,1.024,0,0,0,.684.255c.022,0,.286.065.308.133.037.116.39.069.574.225l.445.335c.844.715.45.572.688.8a4.131,4.131,0,0,1,.44.735A3.58,3.58,0,0,1,90.7,36.69a3.372,3.372,0,0,1-1.018,1.5,3.973,3.973,0,0,1-1.262.672,4.693,4.693,0,0,1-1.068.182,2.429,2.429,0,0,1-.722-.095,5.6,5.6,0,0,1-.6-.219,3.257,3.257,0,0,1-1.914-2.76,1.542,1.542,0,0,1-.018-.247,3.923,3.923,0,0,1,.256-1.264l.232-.56c.032-.067.1-.113.121-.185a.683.683,0,0,1,.186-.338c.031-.028-.036-.02.122-.169.178-.168-.053-.073.4-.427.116-.091.338-.207.514-.355.217-.182.579-.2.667-.3.2-.223.4-.156.489-.276.068-.091.163-.045.183-.083.036-.068.1-.085.162-.117-.151-.074-.141-.133-.191-.165-.238-.156-.106-.2-.462-.279a3.231,3.231,0,0,0-1.3.027,3.348,3.348,0,0,0-1.614.749,5.166,5.166,0,0,0-1.761,3.811,4.971,4.971,0,0,0,.9,2.921,5.574,5.574,0,0,0,1.068,1.138,15.513,15.513,0,0,0-2.373.8,3.433,3.433,0,0,0-1.868,2,25.529,25.529,0,0,0-.851,3.712l-4,.046c.271-.345.189-.984.246-1.2l.075-1.045-.064-1.268a4.363,4.363,0,0,1-.06-.754c0-.039-.018-.078-.02-.118l-.016-.445c-.035-.182.008-.117-.01-.221a5.442,5.442,0,0,1-.07-.978l.673-.665c.015-.038.037.022.1-.077a4.573,4.573,0,0,0,.631-.687l.13-.256a2.782,2.782,0,0,0,1.153.445,2.961,2.961,0,0,0,.749-.035c.411-.129.043.043.5-.187a2.483,2.483,0,0,0,1.162-1.2,2.2,2.2,0,0,0,.083-1.211.528.528,0,0,0-.072-.227c-.029-.035.037-.042-.042-.143-.035-.045-.278-.674-.713-.824a1.35,1.35,0,0,0-1.066.039c-.281.112-.112.145-.15.274V35.7c-.1.087-.076.062-.025.21.045.128.11.072.124.081.156.106-.116.115.12.105.067,0,.048.073.144.2,0,0,.06.063.034.1-.055.079-.006.047,0,.073.107.273.049.173.059.357a.383.383,0,0,1-.406.343s-.209.1-.224.051L77.78,37.1a.635.635,0,0,1-.116-.276l.026-.189c-.038-.1.014-.094,0-.118-.064-.129-.008-.083-.02-.1-.033-.05.031-.02,0-.093-.024-.057.084-.088.118-.2.029-.092.12-.033.127-.118.014-.176.083-.1.1-.214.011-.085.042-.039.047-.077a.194.194,0,0,1,.045-.11c-.123-.218-.045-.424-.414-.57-.413-.163-.4-.042-.678-.078-.3-.039-.767.383-.945.64l-.3.642a2.136,2.136,0,0,0,.1,1.565l-.439.24c-.1-.038-.1.036-.153.071l-1.24.923c-.23.214-.6.3-.662.644a5.425,5.425,0,0,0-.112.882,4.546,4.546,0,0,0-.04,1.246.751.751,0,0,1,.006.178c-.011.1.042.2.007.294l0,.858c0,.079.019.157.022.236l.01,1.092a.814.814,0,0,1,.01.129,2.724,2.724,0,0,0,.065.935l.011.162c.034.063.095.124.075.19,0,0,0,.005.005.009.059.056-.006.11.067.174.045.04.042.3.059.369l-2.309.041c-.532,0-5.918-.017-6.217.068a.771.771,0,0,0-.521.964l.736,2.512.516,1.731c.037.094.055.291.16.586l.322,1.1c.333,1.139.672,2.355,1.084,3.464a.5.5,0,0,0,.512.322c1.079-.093,2.366-.206,3.425-.347l1.7-.185-.495,8.969L72.32,68.72c-.022.419-.046.839-.06,1.257-.016.467-.069.937-.06,1.4a.941.941,0,0,1-.01.177c-.048.277-.045.809-.061,1.148l-.182,3.775c-.152,3.215-.034,6.369,0,9.585,0,.324,0,.65.019.967a2.758,2.758,0,0,0-.368.01,4.441,4.441,0,0,1-.836.075.146.146,0,0,0-.044,0c-.258.061-.487-.007-.768.067-.143.038-1.16.05-1.278.05-.563,0-1.082.1-1.556.087-1.165-.037-.769.137-1.631.173-.339.014-.235.114-.52.121-.195,0-.033.028-.431.126a.894.894,0,0,1,.34.175c.346.149.227.163.333.2a10.94,10.94,0,0,0,1.612.339c.59.115,1.236.12,1.746.234a46.007,46.007,0,0,0,5.073.217c.036,0,.074,0,.109,0,.444.041,1.151.026,1.629.034.151,0,.3.015.455.016l2.525.025,5.593-.063c.617-.018,1.233-.04,1.849-.051.493-.01.986-.011,1.479-.01.174,0,.347-.017.521-.02l1.96-.016a6.6,6.6,0,0,1,.739-.006l1.035-.039c.363-.008.726,0,1.087-.025l.631,0c1.9,0,3.914,0,5.814-.041l1.848-.038,1.608-.037c.1-.013.225.028.541,0l1.022-.017a38.467,38.467,0,0,0,4.112-.213l3.187-.391c.063-.007.906-.09.843-.166-.06-.035-.159-.011-.206-.061.119-.134.162-.081.019-.135a1.9,1.9,0,0,0,.471-.089c-.613-.341-1.889-.1-2.082-.249a10.14,10.14,0,0,0-1.285-.008c-.422-.052-1.407-.087-1.866-.1a7.335,7.335,0,0,1-1.077-.048,2,2,0,0,0-.72-.042c-.117,0-.232-.013-.347-.014l-9.792-.132-2.437-.052c.072-.291.111-.235.136-.4.042-.29.092-.574.124-.878l.215-2.527c.107-1.21.114-2.554.234-3.689.02-.188.034-.384.044-.581l.124-4.532c.016-.979.036-1.959.045-2.939l.024-3.421,1.66-4.817.054-.33L95.581,59l-.025-6.619,4.7,2.854a3.531,3.531,0,0,0,2.281.407l1.355-.187c.363-.051.724-.118,1.087-.17l4.1-.583c.515-.083,1.027-.164,1.545-.22a3.725,3.725,0,0,0,1.618-.465,2.674,2.674,0,0,0,1.245-2.5Z" transform="translate(-64.472 -31.152)" fill="#fff" fill-rule="evenodd"/>
</svg>
