<svg xmlns="http://www.w3.org/2000/svg" width="57.162" height="57.832" viewBox="0 0 57.162 57.832">
  <g id="collaborate" transform="translate(-0.013)">
    <path id="Path_1" data-name="Path 1" d="M56.955,28.555,47.734,6.486l-8.9,3.717A6.669,6.669,0,0,0,38.379,6.6a4.892,4.892,0,1,0-6.687,6.586l-9.511,3.963a6.6,6.6,0,0,0-.949-1.875,1.378,1.378,0,0,0,.324-.246,1.253,1.253,0,0,0,.38-.882h0l-.045-3.684h.759a.668.668,0,0,0,.469-.2.649.649,0,0,0,.2-.48L23.186,0l-1.34.022.123,9.1L4.075,9.254,3.952,0,2.613.022l.123,9.924a.677.677,0,0,0,.67.659h.781c0,.033.045,3.684.045,3.684a1.285,1.285,0,0,0,.536,1l-.491.781a7.261,7.261,0,0,0-.447,1.049H3.818l-1.954,7.29L2.378,26l-.726.324A2.752,2.752,0,0,0,.19,27.863a2.792,2.792,0,0,0,.067,2.121l9.924,22.17,9.3-4.164a1,1,0,0,0,.167-1.753,5.917,5.917,0,0,1-2.266-2.478,3.551,3.551,0,1,1,6.553.424.939.939,0,0,0,1.217,1.273L32.876,42a2.062,2.062,0,0,0,.9-.759l1.172-.48a6.519,6.519,0,0,0,1.206,3.059,1.426,1.426,0,0,0-.324.257,1.233,1.233,0,0,0-.38.893l.056,3.673h-.759a.668.668,0,0,0-.469.2.6.6,0,0,0-.19.48l.123,8.428h1.34l-.123-7.758,17.895-.145.123,7.915h1.34l-.123-8.584A.687.687,0,0,0,54,48.5h-.781c0-.022.011-.056.011-.078l-.056-3.595a1.21,1.21,0,0,0-.536-1c.257-.413.458-.726.491-.793a3.229,3.229,0,0,0,.424-.96L53.572,42h.011l1.954-7.3-.714-2.255.647-.268a2.739,2.739,0,0,0,1.5-3.583c0-.011-.011-.022-.011-.033ZM10.192,22.5l-.112.19a4.934,4.934,0,0,1-2.143,1.931l-.491.2s.77,4.655.982,6.006A3.609,3.609,0,0,1,8,33.166a1.541,1.541,0,0,1-1.261.659.6.6,0,0,1-.547-.29l-2.177-6.8-.413-1.284L3.26,24.38l1.887-7.022a2.176,2.176,0,0,1,.257-.569s.346-.558.737-1.161h0l13.574-.112h0a5.3,5.3,0,0,1,1.239,2.177Zm10.158-8.317h-.022v-.022L5.85,14.278a.381.381,0,0,1-.268-.078v-.134h0l-.045-3.371a.531.531,0,0,1,.257-.078L20.3,10.5a.381.381,0,0,1,.268.078l.056,3.528a.573.573,0,0,1-.268.078Zm11.978,26.58-6.843,3.07a4.892,4.892,0,1,0-9.388.357A6.709,6.709,0,0,0,18.42,47l-7.58,3.394L1.463,29.437a1.38,1.38,0,0,1-.022-1.094,1.41,1.41,0,0,1,.748-.793l.592-.268L4.968,34.1a1.966,1.966,0,0,0,1.708,1.061,2.9,2.9,0,0,0,2.456-1.295v-.022a4.961,4.961,0,0,0,.592-3.237c-.167-1.072-.625-3.874-.815-5a6.29,6.29,0,0,0,2.21-2.054L22.45,18.475a.948.948,0,0,1,.558-.123.743.743,0,0,1,.346.368l3.505,8.015a.911.911,0,0,0,.9.569.961.961,0,0,0,.848-.659,3.505,3.505,0,1,1,5.213,3.9,6.439,6.439,0,0,1-3.349.335,1.03,1.03,0,0,0-.938.4,1.083,1.083,0,0,0-.112,1.016l3.315,7.39a.832.832,0,0,1-.112.848A.635.635,0,0,1,32.329,40.768Zm19.5,4.253h0l.056,3.371a.381.381,0,0,1-.268.078l-14.5.112a.381.381,0,0,1-.268-.078l-.056-3.472Zm.424-3.293A2.176,2.176,0,0,1,52,42.3v.022s-.335.547-.726,1.15h0l-.134.212H37.8l-.112-.112h0a5.342,5.342,0,0,1-1.44-3.371l9.667-4.03c-.212.38-.413.781-.6,1.183l1.217.569c.246-.525.514-1.038.793-1.529a4.6,4.6,0,0,1,1.094-1.273h0a4.878,4.878,0,0,1,1.049-.659l.491-.2-.078-.525c-.011-.011-.045-.257-.112-.625-.2-1.206-.625-3.818-.793-4.845a3.609,3.609,0,0,1,.424-2.333,1.552,1.552,0,0,1,1.261-.67.583.583,0,0,1,.547.3l1.965,6.117.413,1.284.558,1.753Zm3.472-11.565a1.445,1.445,0,0,1-.77.77l-.547.234-1.987-6.184a1.984,1.984,0,0,0-1.7-1.061,3.014,3.014,0,0,0-2.467,1.306,4.961,4.961,0,0,0-.592,3.237c.167,1.083.625,3.874.815,5a6.5,6.5,0,0,0-.737.491h0L34.126,39.652c-.033-.179-3.137-7.167-3.137-7.167A6.419,6.419,0,0,0,34.316,32l.424-.257a4.806,4.806,0,0,0,1.306-1.295l.145-.223a5.032,5.032,0,0,0,.569-1.362.142.142,0,0,0,.011-.067h.011a4.906,4.906,0,0,0,.179-1.34A5,5,0,0,0,36.738,26a4.888,4.888,0,0,0-9.009-.781l-.793-1.775c-.257-.636-1.965-4.387-2.344-5.258a2.725,2.725,0,0,0-.313-.48l8.83-3.639a.936.936,0,0,0,.569-.915.909.909,0,0,0-.647-.837,3.55,3.55,0,0,1-2.367-4.432,4.082,4.082,0,0,1,.2-.514,3.483,3.483,0,0,1,2.221-1.875A3.553,3.553,0,0,1,37.2,7.223a6.326,6.326,0,0,1,.246,3.349,1.03,1.03,0,0,0,.391.949.992.992,0,0,0,1,.134l8.171-3.416,8.707,20.83A1.38,1.38,0,0,1,55.727,30.163Z" transform="translate(0)" fill="#fff"/>
    <rect id="Rectangle_45" data-name="Rectangle 45" width="1.34" height="3.371" transform="translate(13.811 53.071) rotate(-27.298)" fill="#fff"/>
    <rect id="Rectangle_46" data-name="Rectangle 46" width="3.371" height="1.34" transform="translate(4.149 55.506) rotate(-62.702)" fill="#fff"/>
    <rect id="Rectangle_47" data-name="Rectangle 47" width="3.371" height="1.34" transform="matrix(0.024, -1, 1, 0.024, 9.611, 57.799)" fill="#fff"/>
    <rect id="Rectangle_48" data-name="Rectangle 48" width="1.34" height="3.371" transform="translate(42.133 2.505) rotate(-27.298)" fill="#fff"/>
    <rect id="Rectangle_49" data-name="Rectangle 49" width="3.371" height="1.34" transform="translate(51.8 4.931) rotate(-62.702)" fill="#fff"/>
    <rect id="Rectangle_50" data-name="Rectangle 50" width="3.371" height="1.34" transform="matrix(0.024, -1, 1, 0.024, 47.574, 3.515)" fill="#fff"/>
  </g>
</svg>
